<svg width="125" height="186" viewBox="0 0 125 186" fill="none" xmlns="http://www.w3.org/2000/svg">
<path d="M160.25 195.844V231H4.625V201L78.2188 122.094C85.6146 113.865 91.4479 106.625 95.7188 100.375C99.9896 94.0208 103.062 88.3438 104.938 83.3438C106.917 78.2396 107.906 73.3958 107.906 68.8125C107.906 61.9375 106.76 56.0521 104.469 51.1562C102.177 46.1562 98.7917 42.3021 94.3125 39.5938C89.9375 36.8854 84.5208 35.5312 78.0625 35.5312C71.1875 35.5312 65.25 37.1979 60.25 40.5312C55.3542 43.8646 51.6042 48.5 49 54.4375C46.5 60.375 45.25 67.0938 45.25 74.5938H0.09375C0.09375 61.0521 3.32292 48.6562 9.78125 37.4062C16.2396 26.0521 25.3542 17.0417 37.125 10.375C48.8958 3.60417 62.8542 0.21875 79 0.21875C94.9375 0.21875 108.375 2.82292 119.312 8.03125C130.354 13.1354 138.688 20.5312 144.312 30.2188C150.042 39.8021 152.906 51.2604 152.906 64.5938C152.906 72.0938 151.708 79.4375 149.312 86.625C146.917 93.7083 143.479 100.792 139 107.875C134.625 114.854 129.312 121.938 123.062 129.125C116.812 136.312 109.885 143.76 102.281 151.469L62.75 195.844H160.25Z" fill="url(#paint0_linear_1_159)"/>
<defs>
<linearGradient id="paint0_linear_1_159" x1="33.8" y1="21.2" x2="149" y2="231.6" gradientUnits="userSpaceOnUse">
<stop stop-color="#A7D3B4"/>
<stop offset="1" stop-color="#ABDBBD"/>
</linearGradient>
</defs>
</svg>
