<svg width="138" height="190" viewBox="0 0 138 190" fill="none" xmlns="http://www.w3.org/2000/svg">
<path d="M52.7188 97.7188H76.7812C84.4896 97.7188 90.8438 96.4167 95.8438 93.8125C100.844 91.1042 104.542 87.3542 106.938 82.5625C109.438 77.6667 110.688 71.9896 110.688 65.5312C110.688 59.6979 109.542 54.5417 107.25 50.0625C105.062 45.4792 101.677 41.9375 97.0938 39.4375C92.5104 36.8333 86.7292 35.5312 79.75 35.5312C74.2292 35.5312 69.125 36.625 64.4375 38.8125C59.75 41 56 44.0729 53.1875 48.0312C50.375 51.9896 48.9688 56.7812 48.9688 62.4062H3.8125C3.8125 49.9062 7.14583 39.0208 13.8125 29.75C20.5833 20.4792 29.6458 13.2396 41 8.03125C52.3542 2.82292 64.8542 0.21875 78.5 0.21875C93.9167 0.21875 107.406 2.71875 118.969 7.71875C130.531 12.6146 139.542 19.8542 146 29.4375C152.458 39.0208 155.688 50.8958 155.688 65.0625C155.688 72.25 154.021 79.2292 150.688 86C147.354 92.6667 142.562 98.7083 136.312 104.125C130.167 109.438 122.667 113.708 113.812 116.938C104.958 120.062 95.0104 121.625 83.9688 121.625H52.7188V97.7188ZM52.7188 131.938V108.656H83.9688C96.3646 108.656 107.25 110.062 116.625 112.875C126 115.688 133.865 119.75 140.219 125.062C146.573 130.271 151.365 136.469 154.594 143.656C157.823 150.74 159.438 158.604 159.438 167.25C159.438 177.875 157.406 187.354 153.344 195.688C149.281 203.917 143.552 210.896 136.156 216.625C128.865 222.354 120.323 226.729 110.531 229.75C100.74 232.667 90.0625 234.125 78.5 234.125C68.9167 234.125 59.4896 232.823 50.2188 230.219C41.0521 227.51 32.7188 223.5 25.2188 218.188C17.8229 212.771 11.8854 206 7.40625 197.875C3.03125 189.646 0.84375 179.906 0.84375 168.656H46C46 174.49 47.4583 179.698 50.375 184.281C53.2917 188.865 57.3021 192.458 62.4062 195.062C67.6146 197.667 73.3958 198.969 79.75 198.969C86.9375 198.969 93.0833 197.667 98.1875 195.062C103.396 192.354 107.354 188.604 110.062 183.812C112.875 178.917 114.281 173.24 114.281 166.781C114.281 158.448 112.771 151.781 109.75 146.781C106.729 141.677 102.406 137.927 96.7812 135.531C91.1562 133.135 84.4896 131.938 76.7812 131.938H52.7188Z" fill="url(#paint0_linear_1_166)"/>
<defs>
<linearGradient id="paint0_linear_1_166" x1="35.8" y1="21.2" x2="151" y2="231.6" gradientUnits="userSpaceOnUse">
<stop stop-color="#A7D3B4"/>
<stop offset="1" stop-color="#ABDBBD"/>
</linearGradient>
</defs>
</svg>
