<svg width="48" height="48" viewBox="0 0 48 48" fill="none" xmlns="http://www.w3.org/2000/svg">
<circle cx="24" cy="24" r="24" fill="#34AD60"/>
<path d="M24 10.6666C16.6667 10.6666 10.6667 16.6666 10.6667 24C10.6667 31.3333 16.6667 37.3333 24 37.3333C31.3333 37.3333 37.3333 31.3333 37.3333 24C37.3333 16.6666 31.3333 10.6666 24 10.6666ZM24 13.3333C29.4142 13.3333 33.9101 17.4248 34.5729 22.6666H29.1406C28.5408 20.3789 26.4671 18.6666 24 18.6666C21.5329 18.6666 19.4592 20.3789 18.8594 22.6666H13.4271C14.0899 17.4248 18.5858 13.3333 24 13.3333ZM24 21.3333C25.4885 21.3333 26.6667 22.5114 26.6667 24C26.6667 25.4885 25.4885 26.6666 24 26.6666C22.5114 26.6666 21.3333 25.4885 21.3333 24C21.3333 22.5114 22.5114 21.3333 24 21.3333ZM13.4271 25.3333H18.8594C19.3467 27.192 20.808 28.6532 22.6667 29.1406V34.5729C17.8629 33.9654 14.0345 30.137 13.4271 25.3333ZM29.1406 25.3333H34.5729C33.9655 30.137 30.137 33.9654 25.3333 34.5729V29.1406C27.192 28.6532 28.6533 27.192 29.1406 25.3333Z" fill="#FCFCFC"/>
</svg>
