<svg width="48" height="48" viewBox="0 0 48 48" fill="none" xmlns="http://www.w3.org/2000/svg">
<circle cx="24" cy="24" r="24" fill="#32AD5F"/>
<path d="M13.3333 12C11.8759 12 10.6667 13.2092 10.6667 14.6667V36H29.3333H37.3333V20C37.3333 18.5426 36.1241 17.3333 34.6667 17.3333H29.3333V14.6667C29.3333 13.2092 28.1241 12 26.6667 12H13.3333ZM13.3333 14.6667H26.6667V33.3333H13.3333V14.6667ZM16 17.3333V20H18.6667V17.3333H16ZM21.3333 17.3333V20H24V17.3333H21.3333ZM29.3333 20H34.6667V33.3333H29.3333V30.6667H32V28H29.3333V25.3333H32V22.6667H29.3333V20ZM16 22.6667V25.3333H18.6667V22.6667H16ZM21.3333 22.6667V25.3333H24V22.6667H21.3333ZM16 28V30.6667H18.6667V28H16ZM21.3333 28V30.6667H24V28H21.3333Z" fill="#FCFCFC"/>
</svg>
