<svg width="48" height="48" viewBox="0 0 48 48" fill="none" xmlns="http://www.w3.org/2000/svg">
<circle cx="24" cy="24" r="24" fill="#32AD5F"/>
<path d="M24 10.6667C18.1247 10.6667 13.3333 15.4581 13.3333 21.3333V22.6667V23.8698C12.5684 24.5992 12 25.5375 12 26.6667C12 28.3226 13.1434 29.5505 14.5911 30.151C16.3259 34.2974 19.8003 37.3333 24 37.3333H28V34.6667H24C20.9887 34.6667 18.2546 32.3993 16.8802 28.8177L16.5964 28.0833L15.8151 27.9739C15.1584 27.8836 14.6667 27.3535 14.6667 26.6667C14.6667 26.1533 14.9259 25.7506 15.3307 25.5182L16 25.1354V24V22.6667C16 21.9133 16.58 21.3333 17.3333 21.3333H30.6667C31.42 21.3333 32 21.9133 32 22.6667V24V29.3333H26.5495C26.4118 28.9438 26.1568 28.6066 25.8197 28.3678C25.4826 28.1291 25.0798 28.0006 24.6667 28C24.1362 28 23.6275 28.2107 23.2525 28.5858C22.8774 28.9608 22.6667 29.4696 22.6667 30C22.6673 30.5052 22.8592 30.9914 23.2036 31.3609C23.548 31.7305 24.0196 31.956 24.5234 31.9922C24.571 31.9974 24.6188 32 24.6667 32H33.3333H34.6667C36.1333 32 37.3333 30.8 37.3333 29.3333V26.6667C37.3333 25.2 36.1333 24 34.6667 24V22.6667V21.3333C34.6667 15.4581 29.8753 10.6667 24 10.6667ZM24 13.3333C27.5408 13.3333 30.5208 15.6098 31.5807 18.7838C31.2856 18.7134 30.982 18.6667 30.6667 18.6667H17.3333C17.018 18.6667 16.7144 18.7134 16.4193 18.7838C17.4792 15.6098 20.4592 13.3333 24 13.3333Z" fill="#FCFCFC"/>
</svg>
