<svg width="32" height="32" viewBox="0 0 32 32" fill="none" xmlns="http://www.w3.org/2000/svg">
<path d="M16 2.67969C10.8587 2.67969 6.67708 6.86388 6.67708 12.0052C6.67708 17.9825 14.6327 27.6922 14.9713 28.1016L16 29.349L17.0286 28.1016C17.3673 27.6909 25.3229 17.9825 25.3229 12.0052C25.3229 6.86254 21.1413 2.67969 16 2.67969ZM16 5.34635C19.6707 5.34635 22.6562 8.33454 22.6562 12.0052C22.6562 15.6119 18.504 21.8149 16 25.1016C13.496 21.8176 9.34374 15.6172 9.34374 12.0052C9.34374 8.33454 12.3293 5.34635 16 5.34635ZM16 8.66667C14.1587 8.66667 12.6667 10.1587 12.6667 12C12.6667 13.8413 14.1587 15.3333 16 15.3333C17.8413 15.3333 19.3333 13.8413 19.3333 12C19.3333 10.1587 17.8413 8.66667 16 8.66667Z" fill="#FCFCFC"/>
</svg>
