<svg width="48" height="48" viewBox="0 0 48 48" fill="none" xmlns="http://www.w3.org/2000/svg">
<circle cx="24" cy="24" r="24" fill="#34AD60"/>
<path d="M12 12C11.264 12 10.6667 12.5973 10.6667 13.3333V26.6667C10.6667 27.4027 11.264 28 12 28H36C36.736 28 37.3334 27.4027 37.3334 26.6667V13.3333C37.3334 12.5973 36.736 12 36 12H12ZM14.5495 14.6667H33.4505C33.55 14.9471 33.7108 15.2018 33.9212 15.4121C34.1316 15.6225 34.3863 15.7833 34.6667 15.8828V24.1172C34.3863 24.2167 34.1316 24.3775 33.9212 24.5879C33.7108 24.7982 33.55 25.0529 33.4505 25.3333H14.5495C14.45 25.0529 14.2892 24.7982 14.0788 24.5879C13.8684 24.3775 13.6138 24.2167 13.3334 24.1172V15.8828C13.6138 15.7833 13.8684 15.6225 14.0788 15.4121C14.2892 15.2018 14.45 14.9471 14.5495 14.6667ZM24 16C22.9392 16 21.9217 16.4214 21.1716 17.1716C20.4214 17.9217 20 18.9391 20 20C20 21.0609 20.4214 22.0783 21.1716 22.8284C21.9217 23.5786 22.9392 24 24 24C25.0609 24 26.0783 23.5786 26.8284 22.8284C27.5786 22.0783 28 21.0609 28 20C28 18.9391 27.5786 17.9217 26.8284 17.1716C26.0783 16.4214 25.0609 16 24 16ZM17.3334 18.6667C16.5974 18.6667 16 19.2627 16 20C16 20.7373 16.5974 21.3333 17.3334 21.3333C18.0694 21.3333 18.6667 20.7373 18.6667 20C18.6667 19.2627 18.0694 18.6667 17.3334 18.6667ZM30.6667 18.6667C29.9307 18.6667 29.3334 19.2627 29.3334 20C29.3334 20.7373 29.9307 21.3333 30.6667 21.3333C31.4027 21.3333 32 20.7373 32 20C32 19.2627 31.4027 18.6667 30.6667 18.6667ZM13.3203 30.6667L33.638 35.9583C34.3514 36.1437 35.0777 35.7146 35.263 35.0026L36.3932 30.6667H33.638L33.3229 31.8672C32.7243 31.9192 32.1837 32.2384 31.8464 32.7344L23.9037 30.6667H13.3203Z" fill="#FCFCFC"/>
</svg>
