<svg width="48" height="48" viewBox="0 0 48 48" fill="none" xmlns="http://www.w3.org/2000/svg">
<circle cx="24" cy="24" r="23.5" stroke="#FCFCFC"/>
<path d="M34.6973 28.6507C33.8573 28.6307 32.8 28.5813 32.132 28.464C31.4093 28.336 30.54 28.088 29.928 27.8973C29.448 27.748 28.9253 27.88 28.5693 28.2347L25.6133 31.1733C23.5707 30.0973 21.9347 28.844 20.5493 27.4507C19.156 26.0653 17.9027 24.4293 16.8267 22.3867L19.7653 19.4293C20.12 19.0733 20.252 18.5507 20.1027 18.0707C19.9133 17.46 19.664 16.5907 19.5373 15.868C19.4187 15.2 19.3707 14.1427 19.3493 13.3027C19.332 12.576 18.74 12 18.0133 12H13.3333C12.7493 12 12 12.4373 12 13.3333C12 19.3853 14.4533 25.1653 18.6213 29.3787C22.8347 33.5467 28.6147 36 34.6667 36C35.5627 36 36 35.2507 36 34.6667V29.9867C36 29.26 35.424 28.668 34.6973 28.6507Z" fill="#FCFCFC"/>
</svg>
