<svg width="32" height="32" viewBox="0 0 32 32" fill="none" xmlns="http://www.w3.org/2000/svg">
<path d="M16.0156 2.66675C8.6743 2.66675 2.69798 8.63791 2.69532 15.9792C2.69398 18.3259 3.30863 20.6168 4.47396 22.6355L2.66667 29.3334L9.64323 27.685C11.5886 28.7463 13.7785 29.3034 16.0078 29.3048H16.013C23.353 29.3048 29.3267 23.3323 29.3307 15.9923C29.3334 12.4336 27.9496 9.08773 25.4349 6.57039C22.9202 4.05439 19.5783 2.66808 16.0156 2.66675ZM16.013 5.33341C18.861 5.33475 21.5375 6.44514 23.5495 8.45581C25.5615 10.4691 26.6667 13.1443 26.6641 15.9897C26.6614 21.8617 21.8851 26.6381 16.0104 26.6381C14.2331 26.6368 12.4725 26.1905 10.9219 25.3438L10.0234 24.8542L9.03126 25.0886L6.40626 25.7084L7.04688 23.3282L7.33594 22.2605L6.78386 21.3022C5.85319 19.6915 5.36065 17.8499 5.36198 15.9792C5.36465 10.1099 10.1424 5.33341 16.013 5.33341ZM11.3021 9.83342C11.0794 9.83342 10.7194 9.91675 10.4141 10.2501C10.1087 10.5821 9.2474 11.3862 9.2474 13.0235C9.2474 14.6609 10.4401 16.2436 10.6068 16.4662C10.7721 16.6876 12.909 20.1537 16.2917 21.4871C19.1023 22.5951 19.6732 22.3764 20.2839 22.3204C20.8945 22.2657 22.2539 21.517 22.5313 20.7397C22.8086 19.9623 22.8092 19.2937 22.7266 19.1563C22.6439 19.0177 22.4219 18.935 22.0885 18.7683C21.7565 18.6016 20.1204 17.7982 19.8151 17.6876C19.5098 17.5769 19.2864 17.5209 19.0651 17.8542C18.8438 18.1876 18.2077 18.935 18.013 19.1563C17.8184 19.379 17.625 19.4089 17.2917 19.2423C16.9583 19.0743 15.8866 18.722 14.6146 17.5886C13.6253 16.7073 12.9577 15.6199 12.763 15.2865C12.5697 14.9545 12.7448 14.7722 12.9115 14.6069C13.0608 14.4575 13.2422 14.2182 13.4089 14.0235C13.5742 13.8289 13.6315 13.6902 13.7422 13.4688C13.8529 13.2475 13.7962 13.0522 13.7135 12.8855C13.6309 12.7188 12.9835 11.0754 12.6875 10.4167C12.4382 9.86341 12.1748 9.85056 11.9375 9.84123C11.7442 9.83323 11.5234 9.83342 11.3021 9.83342Z" fill="#FCFCFC"/>
</svg>
